<?xml version="1.0" encoding="UTF-8"?>
<!DOCTYPE svg PUBLIC "-//W3C//DTD SVG 1.1//EN" "http://www.w3.org/Graphics/SVG/1.1/DTD/svg11.dtd">
<!-- Creator: CorelDRAW -->
<svg xmlns="http://www.w3.org/2000/svg" xml:space="preserve" width="2400px" height="2400px" style="shape-rendering:geometricPrecision; text-rendering:geometricPrecision; image-rendering:optimizeQuality; fill-rule:evenodd; clip-rule:evenodd"
viewBox="0 0 2400 2400"
 xmlns:xlink="http://www.w3.org/1999/xlink">
 <defs>
  <style type="text/css">
   <![CDATA[
    .fil0 {fill:black}
   ]]>
  </style>
 </defs>
 <g id="Capa_x0020_1">
  <metadata id="CorelCorpID_0Corel-Layer"/>
  <path class="fil0" d="M213.938 2365.35c0,-99.017 80.2649,-179.287 179.283,-179.287l137.001 0c-85.1817,-95.1585 -137.001,-220.803 -137.001,-358.568l0 -448.21 -179.283 0c-49.5096,0 -89.6448,-40.1352 -89.6448,-89.6404 0,-49.5085 40.1352,-89.6437 89.6448,-89.6437l179.283 0 0 -179.284 -89.6426 0c-148.522,0 -268.928,-120.406 -268.928,-268.928 0,-297.048 240.807,-537.855 537.853,-537.855 0,-99.0136 80.2716,-179.284 179.285,-179.284l0 179.284 89.6426 0c31.4357,0 61.5996,5.41251 89.6404,15.326l0 -15.326c0,-99.0136 80.2716,-179.284 179.287,-179.284l0 896.423c0,123.74 50.1821,235.792 131.301,316.911l43.429 43.429c113.571,113.571 183.838,270.444 183.838,443.655l0 361.354c0,49.5085 40.1341,89.6404 89.6448,89.6404l268.922 0c198.035,0 358.573,-160.533 358.573,-358.568l0 -537.85c0,-49.5085 -40.1352,-89.6437 -89.6448,-89.6437l-537.85 0c-148.527,0 -268.928,-120.401 -268.928,-268.928l0 -358.567c0,-297.049 240.803,-537.856 537.85,-537.856 297.048,0 537.856,240.807 537.856,537.856l0 89.6393c0,99.0181 -80.2705,179.287 -179.283,179.287l0 -268.927c0,-198.035 -160.538,-358.572 -358.573,-358.572 -198.031,0 -358.567,160.537 -358.567,358.572l0 358.567c0,49.5085 40.1341,89.6437 89.6448,89.6437l537.85 0c148.525,0 268.928,120.402 268.928,268.928l0 537.85c0,297.049 -240.808,537.856 -537.856,537.856l-1613.56 0zm1091.03 -179.287l0 0c-9.91237,-28.0408 -15.3215,-58.2047 -15.3215,-89.6404l0 -361.354c0,-123.738 -50.1843,-235.792 -131.301,-316.91l-43.429 -43.4279c-113.573,-113.573 -183.843,-270.446 -183.843,-443.658l0 -448.211c0,-49.5085 -40.1308,-89.6404 -89.6404,-89.6404l-268.928 0c-198.031,0 -358.566,160.537 -358.566,358.567 0,49.5096 40.1308,89.6437 89.6404,89.6437l134.463 0c74.2633,0 134.462,60.2012 134.462,134.461l0 851.601c0,198.035 160.538,358.568 358.568,358.568l373.894 0zm-732.462 -1680.79l0 0c-49.5085,0 -89.6426,40.1352 -89.6426,89.6437 0,49.5085 40.1341,89.6437 89.6426,89.6437 49.5096,0 89.6448,-40.1352 89.6448,-89.6437 0,-49.5085 -40.1352,-89.6437 -89.6448,-89.6437zm1254.99 918.836l0 0c-74.2588,0 -134.462,60.2012 -134.462,134.46 0,55.4501 33.5655,103.053 81.4833,123.618l-81.4833 190.132 268.927 0 -81.4844 -190.132c47.9189,-20.5651 81.4844,-68.1682 81.4844,-123.618 0,-74.2588 -60.2001,-134.46 -134.464,-134.46z"/>
 </g>
</svg>
