<?xml version="1.0" encoding="UTF-8"?>
<!DOCTYPE svg PUBLIC "-//W3C//DTD SVG 1.1//EN" "http://www.w3.org/Graphics/SVG/1.1/DTD/svg11.dtd">
<!-- Creator: CorelDRAW -->
<svg xmlns="http://www.w3.org/2000/svg" xml:space="preserve" width="2400px" height="2400px" style="shape-rendering:geometricPrecision; text-rendering:geometricPrecision; image-rendering:optimizeQuality; fill-rule:evenodd; clip-rule:evenodd"
viewBox="0 0 2400 2400"
 xmlns:xlink="http://www.w3.org/1999/xlink">
 <defs>
  <style type="text/css">
   <![CDATA[
    .fil1 {fill:white}
    .fil0 {fill:#007CC3;fill-rule:nonzero}
   ]]>
  </style>
 </defs>
 <g id="Icon_x0020_Outline">
  <metadata id="CorelCorpID_0Corel-Layer"/>
  <path class="fil0" d="M2363.05 570.783l0 1269.27 0 0c0,283.978 -230.717,516.32 -512.65,516.32l0 0 -1276.57 0 0 0c-282.009,0 -512.687,-232.342 -512.687,-516.32l0 0 0 -1269.27 0 0c0,-283.971 230.678,-516.315 512.687,-516.315l0 0 1276.57 0 0 0c281.933,0 512.65,232.343 512.65,516.315l0 0z"/>
 </g>
 <g id="Squirrel">
  <metadata id="CorelCorpID_1Corel-Layer"/>
  <path class="fil1" d="M451.122 2101.88c0,-76.352 61.892,-138.248 138.245,-138.248l105.642 0c-65.6837,-73.3773 -105.642,-170.262 -105.642,-276.492l0 -345.614 -138.245 0c-38.1766,0 -69.1253,-30.9477 -69.1253,-69.122 0,-38.1755 30.9488,-69.1242 69.1253,-69.1242l138.245 0 0 -138.245 -69.1231 0c-114.525,0 -207.37,-92.8452 -207.37,-207.37 0,-229.054 185.686,-414.74 414.739,-414.74 0,-76.3498 61.8975,-138.246 138.247,-138.246l0 138.246 69.1231 0c24.2401,0 47.4998,4.17304 69.122,11.8177l0 -11.8177c0,-76.3498 61.8975,-138.246 138.248,-138.246l0 691.231c0,95.4164 38.6957,181.82 101.246,244.371l33.4888 33.4877c87.575,87.575 141.758,208.54 141.758,342.103l0 278.64c0,38.1766 30.9465,69.122 69.1242,69.122l207.366 0c152.705,0 276.496,-123.787 276.496,-276.492l0 -414.736c0,-38.1755 -30.9488,-69.1242 -69.1253,-69.1242l-414.736 0c-114.529,0 -207.37,-92.8408 -207.37,-207.37l0 -276.49c0,-229.055 185.684,-414.741 414.736,-414.741 229.054,0 414.741,185.686 414.741,414.741l0 69.1209c0,76.352 -61.8964,138.248 -138.245,138.248l0 -207.369c0,-152.705 -123.791,-276.495 -276.496,-276.495 -152.701,0 -276.49,123.79 -276.49,276.495l0 276.49c0,38.1766 30.9465,69.1253 69.1242,69.1253l414.736 0c114.529,0 207.37,92.8419 207.37,207.369l0 414.736c0,229.055 -185.687,414.741 -414.741,414.741l-1244.21 0zm841.293 -138.248l0 0c-7.64354,-21.6222 -11.8155,-44.8819 -11.8155,-69.122l0 -278.64c0,-95.4142 -38.6968,-181.82 -101.246,-244.37l-33.4877 -33.4866c-87.5761,-87.5761 -141.761,-208.541 -141.761,-342.105l0 -345.614c0,-38.1766 -30.9454,-69.122 -69.122,-69.122l-207.37 0c-152.701,0 -276.49,123.79 -276.49,276.491 0,38.1766 30.9454,69.1242 69.122,69.1242l103.685 0c57.2643,0 103.684,46.4204 103.684,103.682l0 656.67c0,152.705 123.791,276.492 276.492,276.492l288.31 0zm-564.803 -1296.06l0 0c-38.1755,0 -69.1231,30.9488 -69.1231,69.1242 0,38.1766 30.9477,69.1242 69.1231,69.1242 38.1766,0 69.1253,-30.9477 69.1253,-69.1242 0,-38.1755 -30.9488,-69.1242 -69.1253,-69.1242zm967.724 708.515l0 0c-57.261,0 -103.684,46.4215 -103.684,103.682 0,42.7576 25.882,79.4646 62.8313,95.3219l-62.8313 146.611 207.369 0 -62.8324 -146.611c36.9504,-15.8573 62.8324,-52.5643 62.8324,-95.3219 0,-57.261 -46.4204,-103.682 -103.686,-103.682z"/>
 </g>
</svg>
